<svg height='100px' width='100px'  fill="#000000" xmlns="http://www.w3.org/2000/svg" xmlns:xlink="http://www.w3.org/1999/xlink" version="1.1" x="0px" y="0px" viewBox="0 0 100 100" enable-background="new 0 0 100 100" xml:space="preserve"><path d="M62.709,22.434v0.89h-3.232v-9.182h1.935v-2.45L50.335,5.104l-11.114,6.534v2.449h1.942v9.182h-3.231v-0.89h-1.383v5.45  c0,0,0,0.89,1.014,0.89h2.871l-0.635,11.988c3.145,1.075,6.634,1.639,10.266,1.639c0.001,0,0.002,0,0.003,0  c3.799,0,7.493-0.645,10.762-1.827l-0.623-11.745h2.882c1.004,0,1.004-0.889,1.004-0.889v-5.451H62.709z M43.312,23.276H42.21V14.09  h1.102V23.276z M46.998,23.276h-2.646V14.09h2.646V23.276z M51.609,38.275h-2.577V32.32h2.577V38.275z M52.448,23.273h-4.41v-9.187  h4.41V23.273z M56.131,23.273h-2.645v-9.187h2.645V23.273z M58.274,23.273h-1.103v-9.187h1.103V23.273z"></path><rect x="49.032" y="45.168" fill="#000000" width="2.577" height="5.956"></rect><path d="M61.474,52.665c-3.573,1.072-7.419,1.643-11.406,1.643c-0.001,0-0.003,0-0.004,0c-3.777,0-7.465-0.508-10.908-1.488  l-0.654,12.32c3.591,1.357,7.465,2.045,11.566,2.045c4.279,0,8.326-0.76,12.056-2.248L61.474,52.665z M51.609,63.973h-2.577v-5.955  h2.577V63.973z"></path><rect x="49.032" y="70.864" fill="#000000" width="2.577" height="5.959"></rect><path d="M48.294,85.708h4.052v9.305h11.375l-0.87-16.408c-4.051,1.316-8.333,1.984-12.783,1.984c-4.28,0-8.391-0.613-12.288-1.824  l-0.862,16.248h11.376V85.708z"></path></svg>